<!DOCTYPE svg PUBLIC "-//W3C//DTD SVG 1.1//EN" "http://www.w3.org/Graphics/SVG/1.1/DTD/svg11.dtd">
<!-- Uploaded to: SVG Repo, www.svgrepo.com, Transformed by: SVG Repo Mixer Tools -->
<svg width="800px" height="800px" viewBox="0 0 16 16" xmlns="http://www.w3.org/2000/svg" fill="#000000">
<g id="SVGRepo_bgCarrier" stroke-width="0"></g>
<g id="SVGRepo_tracerCarrier" stroke-linecap="round" stroke-linejoin="round"></g>
<g id="SVGRepo_iconCarrier">
<path d="M8 1a7 7 0 100 14A7 7 0 008 1zM6 5c.558 0 1.031.473 1.031 1.031V7c0 .558-.473 1-1.031 1-.558 0-1-.442-1-1v-.969C5 5.473 5.442 5 6 5zm4 0c.558 0 1 .473 1 1.031V7c0 .558-.442 1-1 1s-1-.442-1-1v-.969C9 5.473 9.442 5 10 5zM3 9.031c2 1.304 7.987 1.304 10.031 0l-.03.531c-.037.43-1 3.376-5 3.407-4 .031-5-2.78-5-3.313z" fill="#0096FF"></path>
</g>
</svg>